<?xml version="1.0" encoding="UTF-8"?>
<svg id="Layer_1" data-name="Layer 1" xmlns="http://www.w3.org/2000/svg" version="1.1" viewBox="0 0 490.3 513.6">
  <defs>
    <style>
      .cls-1 {
        fill: #d6d6d6;
      }

      .cls-1, .cls-2, .cls-3, .cls-4, .cls-5, .cls-6, .cls-7, .cls-8, .cls-9, .cls-10, .cls-11, .cls-12, .cls-13, .cls-14, .cls-15, .cls-16, .cls-17, .cls-18, .cls-19, .cls-20, .cls-21, .cls-22, .cls-23 {
        stroke-width: 0px;
      }

      .cls-2 {
        fill: #3ed6e0;
      }

      .cls-3 {
        fill: #4ceaf7;
      }

      .cls-4 {
        fill: #38cbd2;
      }

      .cls-5 {
        fill: #46e4f7;
      }

      .cls-6 {
        fill: #40cee1;
      }

      .cls-7 {
        fill: #3ab2b9;
      }

      .cls-8 {
        fill: #4dd9e9;
      }

      .cls-9 {
        fill: #fafafa;
      }

      .cls-10 {
        fill: #42e2ed;
      }

      .cls-11 {
        fill: #fcfbfc;
      }

      .cls-12 {
        fill: #4fe3ed;
      }

      .cls-13 {
        fill: #49ebf9;
      }

      .cls-14 {
        fill: #48ebf9;
      }

      .cls-15 {
        fill: #e9edeb;
      }

      .cls-16 {
        fill: #38dfe8;
      }

      .cls-17 {
        fill: #dbdbdb;
      }

      .cls-18 {
        fill: #e1e1e1;
      }

      .cls-19 {
        fill: #4adde4;
      }

      .cls-20 {
        fill: #47d3dc;
      }

      .cls-21 {
        fill: #43cad3;
      }

      .cls-22 {
        fill: #fafafb;
      }

      .cls-23 {
        fill: #cdcdcc;
      }
    </style>
  </defs>
  <path class="cls-11" d="M225.5,132.1c23.9-1.2,48,5.7,67.9,19.1.7,1,1.3,2,2,3-.6-.3-1.3-.5-1.9-.8-32.5-12.8-64.2-14.1-96.8-.3-16,7.2-29.7,17-42.3,29.1-.9.9-1.8,1.7-2.8,2.6-28.4,27.5-44,67.2-44.7,106.4,0,45.7,16.7,86.1,47.4,119.7,1.6,1.8,3.1,3.6,4.6,5.4,3.2,3.7,6.7,6.7,10.4,9.8.5.4,1,.9,1.5,1.3,10.2,8.6,21,15.9,32.5,22.7.6.4,1.3.8,1.9,1.2,43.7,25.7,98.4,32.4,147.2,20.1,6.3-1.7,12.6-3.4,18.8-5.2,1.4-.4,2.8-.8,4.2-1.2.9-.3,1.8-.5,2.8-.8-15.6,17-49.6,24.5-71,30-.9.2-1.9.5-2.8.7-52.9,12.9-113,0-159-27.4-13.1-8-24.9-17.8-36.1-28.3-.8-.7-1.6-1.4-2.4-2.2-29-27.7-48.6-69.7-49.8-109.8-.5-19.5-.2-38.1,5.2-57,.3-.9.5-1.8.8-2.8,8.4-28.9,23.5-55,44.1-77,1.7-1.8,3.2-3.6,4.7-5.5,14.5-16.8,36.3-29.6,56.4-38.8.7-.3,1.3-.6,2-.9,17.8-8,35.6-12.1,55.1-13.2h0Z"/>
  <path class="cls-9" d="M233,15.9h2.8c20.8-.2,40.3.2,60.6,5.3.7.2,1.4.3,2.2.5,4,1,7.9,2.2,11.8,3.5s2.9.9,4.4,1.4c29.2,9.4,55.4,24.5,77.6,45.6.5.5,1,1,1.5,1.4,25.8,24.5,43.3,56.7,50.5,91.6.2,1.1.4,2.2.7,3.3,7.6,44.9-5.1,89.8-30.7,126.7-2.8,3.9-5.8,7.5-9,11-.4.5-.9,1-1.3,1.5-3.2,3.6-6.4,7-9.7,10.5-.7.7-1.4,1.5-2.1,2.2-19,19.6-43.5,34.2-68.9,43.8-.7.3-1.5.6-2.2.9-5.2,1.9-10.4,3.6-15.8,5.1-.7.2-1.5.4-2.2.6-23.4,6.5-54.6,6.7-77.8-.6-.7-.2-1.4-.4-2.1-.6-30.2-9.7-55.9-28.2-70.8-56.5-7.4-14.8-10.3-30.1-10.3-46.6v-3.4c0-9.5,1.1-18.3,4.2-27.3.3-1,.6-1.9,1-2.9,1.1-2.6,2.3-4.5,4.1-6.6,0,.6-.3,1.3-.4,2-5.1,25.8.3,52.9,14.4,75,16.7,24.5,41.3,42.3,70,50,.7.2,1.3.4,2,.6,35.1,10,74.9,2.3,106.5-14.8,16.9-9.5,33.2-21.7,45.5-36.8.5-.7,1.1-1.3,1.7-2,5.1-6.3,9.3-13,13.3-20,.3-.6.7-1.2,1-1.8,16.9-30.2,24.9-71.1,15.6-105.2-.2-.7-.4-1.3-.6-2-.2-.8-.4-1.6-.7-2.4-14.4-48.9-47.9-85.4-92-109.8-16.2-8.7-33.5-15.1-51.3-19.8-.7-.2-1.5-.4-2.2-.6-22.2-6-45.2-7.6-68.1-7.7h-2.5c-18.5,0-36.3,1.5-54.2,6.3v-2c22.1-8.4,42.6-15.2,66-18,1.2-.2,2.4-.3,3.7-.5,4.6-.6,9.3-.7,13.9-.8h-.1Z"/>
  <path class="cls-22" d="M287.4,103.2c.6.3,1.2.7,1.9,1,28.3,14.7,50.3,39.5,61,69.6,8.6,28.4,6.7,55.9-6.4,82.5-9.7,17.9-27.7,36-47.4,42.6-1.7.5-3.4.9-5,1.3,2.9-3,5.9-5.5,9.3-7.9,1.9-1.4,3.8-2.7,5.7-4.1.6-.4,1.2-.9,1.9-1.4,17-13.3,27.9-36.6,30.8-57.6,2.5-27.3-5.9-53.1-23.2-74.1-15.8-18.3-36.9-32.1-60.5-37.9-.7-.2-1.5-.4-2.3-.6-22.4-5.5-48.3-5.8-70.7-.4-.8.2-1.7.4-2.5.6-12.8,3.1-24.7,7.6-36.5,13.4-.7.3-1.4.7-2.1,1-18.1,8.7-34.1,20.3-48.4,34.5-1.3,1.3-2.7,2.6-4.1,3.9-29.3,28-50.4,73-51.5,113.4v18.4c0,13.8,1.1,27.2,4.9,40.6.3.9.5,1.8.8,2.8,3.7,12.7,7.9,25,14.5,36.4l-1,2c-24.5-28-38.4-65-40-102,0-.8,0-1.6,0-2.4-1.7-46.6,14.2-91.6,45.1-126.6.4-.5.9-1,1.3-1.5,14.6-16.6,31.5-29.7,50.7-40.5.6-.3,1.2-.7,1.8-1,51.6-29.5,119-33.2,172.2-6h-.2Z"/>
  <path class="cls-13" d="M438.4,117.2c3.7,3.4,6.2,7.1,8.8,11.3.4.7.9,1.4,1.3,2.1,21,34.5,31.6,72.4,31.4,112.7v3.1c0,15.8-1,30.4-5.5,45.7-.3,1.1-.6,2.2-.9,3.3-3.7,13.3-7.9,26.3-14.1,38.7-.3.7-.7,1.4-1,2.1-15.4,31.3-39.2,57.4-68,76.9-.6.4-1.1.8-1.7,1.2-37.7,26-87.8,34.8-132.3,26.8-43.5-8.3-80.9-32.5-106-69-18.3-27.5-28-64.4-21.4-97.1,0-.6.3-1.2.4-1.9h1v1.9c1.7,32.6,16.8,65.6,39.2,89.1,1.1,1.3,2,3,2.7,5,1.3.7,2.7,1.3,4,2,1.8,1.6,3.6,3.3,5.3,5,22.6,21.1,51.7,31.2,81.7,36,1.2.2,2.4.4,3.6.6,13.4,1.6,27.1.5,40.4-1.6.8,0,1.6-.2,2.5-.4,27.5-4.3,54.2-14.9,76.5-31.6.6-.4,1.2-.9,1.8-1.4,7-5.2,13.5-10.6,19.5-17.1,1.1-1.1,2.4-1.6,3.7-1.6.7-1.3,1.3-2.6,2-4h2c.3-.5.5-1.1.7-1.7,1.6-2.9,3.5-5.1,5.7-7.5,32.5-38.1,44.9-87.7,43.6-136.8,0-1.3,0-2.6,0-3.9-.7-17.2-5.1-35-10.9-51.1-.3-.7-.5-1.4-.8-2.1-3.4-9.6-7.5-18.6-12.4-27.6-1.9-3.4-2.8-5.8-2.8-7.3v.2Z"/>
  <path class="cls-3" d="M150.4,226.2c1.1,3.2.9,4,0,7.1-1.1,4.7-1.4,9.1-1.4,13.9v2.5c.6,29.5,14,54.9,34.7,75.3,14.1,13.4,32.9,23.2,51.6,28.2.7.2,1.3.4,2,.6,35.1,10,74.9,2.3,106.5-14.8,16.4-9.2,32.6-21.1,44.5-35.8,0,3.4-.4,3.9-2.4,6.5-.5.7-1.1,1.4-1.7,2.1-.6.8-1.3,1.6-1.9,2.4-.7.9-1.4,1.8-2.2,2.7-3.8,4.8-7.7,9.3-12.2,13.6-1.8,1.8-3.5,3.7-5.2,5.7-5.1,5.9-10.4,11.1-16.8,15.6-1.3.9-2.6,2.4-3.7,4.4-1.1.7-2.4,1.3-3.7,1.8-.8.3-1.5.6-2.3,1-.8.3-1.6.7-2.5,1s-1.7.7-2.6,1.1c-8.5,3.4-17.1,6.6-25.9,9.1-.7.2-1.5.4-2.2.6-23.4,6.5-54.6,6.7-77.8-.6-.7-.2-1.4-.4-2.1-.6-30.2-9.7-55.9-28.2-70.8-56.5-7.4-14.8-10.3-30.1-10.3-46.6v-3.4c0-9.5,1.1-18.3,4.2-27.3.3-1,.7-2,1-2.9.9-2.3,1.8-4.5,3-6.6h.2Z"/>
  <path class="cls-14" d="M268.4,211.2c6.7,4.5,12.3,12,14,20,1,11.1-2.3,19-9.1,27.6-7.6,6.1-15,9.4-24.8,8.8-8.6-1.2-15.4-4.9-21.1-11.4-6-8.9-7.1-17.4-6-28,3-8.5,9.6-14.5,17.2-18.9,9.8-4,20.5-3.2,29.8,1.9h0Z"/>
  <path class="cls-8" d="M388.4,303.2c0,3.4-.4,3.9-2.4,6.5-.5.7-1.1,1.4-1.7,2.1-.6.8-1.2,1.6-1.9,2.4-.7.9-1.4,1.8-2.2,2.7-3.8,4.8-7.7,9.3-12.1,13.6-2.6,2.6-4.8,5.4-7.1,8.2-1.1,1-2.6,1.5-4.6,1.5.7-2.6,1.3-5.3,2-8l-2-1c1-.8,2.1-1.5,3.1-2.3,10.5-7.8,20.6-15.5,28.9-25.7Z"/>
  <path class="cls-10" d="M438.4,117.2c3.7,3.4,6.2,7.1,8.8,11.3.4.7.9,1.4,1.3,2.1,3,4.9,5.8,9.9,8.6,15,.3.6.7,1.3,1,1.9,1.5,2.9,2.3,5.2,2.3,6.7h-2l-1,2c-3.9-2.6-4.6-5.8-6.1-10.1-2.8-7.6-6.1-14.6-10-21.6-1.9-3.4-2.8-5.8-2.8-7.3h0Z"/>
  <path class="cls-2" d="M129.4,273.2h1c0,.8,0,1.6.2,2.4.3,4.6.8,9.2,1.5,13.7,0,.9.2,1.9.3,2.9l-2,2c-.3,2.4-.5,4.7-.6,7.1,0,1.3,0,2.6-.2,3.9,0,1,0,2,0,3-2.4-2.4-2.3-3-2.3-6.4v-8.4c0-6.9.7-13.5,2.2-20.3h0Z"/>
  <path class="cls-19" d="M150.4,226.2c1.3,4,.5,7.4-.2,11.5,0,.8-.2,1.5-.3,2.3-.7,3.8-1.9,6.5-3.6,8.2-.6.3-1.2.6-1.9,1-.7-8.1,2.2-15.9,6-23Z"/>
  <path class="cls-20" d="M421.4,346.2h2c-1.5,3.6-3.7,6.1-6.3,9-.8.8-1.5,1.7-2.3,2.6-2.3,2.4-4.7,4.4-7.4,6.4l-2-1c1.3-1.4,2.6-2.7,4-4h2c.7-1.3,1.3-2.6,2-4h2c.2-.6.5-1.1.8-1.7,1.5-2.7,3.2-5,5.2-7.3Z"/>
  <path class="cls-4" d="M438.4,117.2c3.3,3.1,5.8,6.4,8.2,10.1.7,1.1,1.4,2.1,2.1,3.2,1.1,1.8,1.6,3.4,1.6,4.7l-3,1c-1.5-2.8-3-5.6-4.5-8.4-.4-.8-.9-1.6-1.3-2.4-.4-.8-.8-1.5-1.2-2.3-.4-.7-.8-1.4-1.1-2.1-.3-.7-.6-1.9-.8-3.8h0Z"/>
  <path class="cls-15" d="M354.4,344.2l1,2c.7.3,1.3.7,2,1-4.3,2.6-8.6,5.3-13,8v-3c1.5-1.3,3.1-2.7,5-4.2.9-.7,1.9-1.4,2.8-2.2.7-.5,1.5-1.1,2.2-1.6Z"/>
  <path class="cls-1" d="M165.4,31.2l2,2c-5.9,1.3-11.9,2.6-18,4v-2c2.1-.9,4.2-1.7,6.3-2.6,1.2-.5,2.3-1,3.6-1.4,2.1-.7,4.1-.7,6.1,0h0Z"/>
  <path class="cls-6" d="M388.4,303.2c0,3.5-.7,4.3-2.8,7.1-.5.7-1,1.4-1.6,2.1-1.1,1.2-2.6,2.5-4.6,3.8,0-4.1,1.7-5.2,4.5-8.2.8-.9,1.7-1.8,2.5-2.7.7-.7,1.3-1.4,2-2.1h0Z"/>
  <path class="cls-18" d="M302.4,291.2l2,1c-1,2.6-1.7,3.8-4.1,5.3-.8.3-1.6.7-2.4,1-.8.3-1.6.7-2.4,1.1-.8.4-2.2.3-4.1-.4,3.6-2.6,7.3-5.3,11-8h0Z"/>
  <path class="cls-17" d="M282.4,145.2c1.8.9,3.6,1.9,5.4,2.8,1,.5,2,1,3,1.6,1.7,1.1,3.3,2.6,4.6,4.6-.7-.3-1.3-.5-2-.8-3.6-1.4-7.3-2.8-11-4.2v-4Z"/>
  <path class="cls-23" d="M378.4,465.2c-3.6,2-7.3,4-11,6l-3-3c2-.7,3.9-1.4,5.9-2.1,1.1-.4,2.2-.8,3.3-1.2,1.9-.5,3.5-.5,4.8.2h0Z"/>
  <path class="cls-5" d="M373.4,320.2h3c-1.2,2.5-2,4-4,6-1.7.4-3.4.7-5,1v-3c2-.7,4-1.3,6-2v-2Z"/>
  <path class="cls-7" d="M477.4,213.2h1c.3,4.6.7,9.2,1,14-2.7-4-3.2-6.5-2.6-11.3.2-.9.4-1.8.6-2.7Z"/>
  <path class="cls-21" d="M146.4,235.2c.8,3.3,1.1,5.7,1,9-1,.3-2,.7-3,1,.7-3.3,1.3-6.6,2-10Z"/>
  <path class="cls-12" d="M428.4,337.2c.7,1,1.3,2,2,3l-5,5c-.7-.3-1.3-.7-2-1,1.7-2.3,3.3-4.6,5-7Z"/>
  <path class="cls-16" d="M452.4,139.2c1.9,2.4,3,4.1,4,7-1,.3-2,.7-3,1-.7-.3-1.3-.7-2-1v-2h2v-2c-.7-.3-1.3-.7-2-1l1-2Z"/>
</svg>